<svg width="1024" height="1024" viewBox="0 0 200 200" fill="none" xmlns="http://www.w3.org/2000/svg">
  <defs>
    <linearGradient id="fill" x1="50" y1="20" x2="150" y2="180" gradientUnits="userSpaceOnUse">
      <stop offset="0%" stop-color="#DEC4FF"/>
      <stop offset="40%" stop-color="#7F47DD"/>
      <stop offset="100%" stop-color="#3A0E9E"/>
    </linearGradient>
    <radialGradient id="light" cx="38%" cy="30%" r="52%">
      <stop offset="0%" stop-color="white" stop-opacity="0.6"/>
      <stop offset="100%" stop-color="white" stop-opacity="0"/>
    </radialGradient>
    <filter id="shd" x="-25%" y="-25%" width="150%" height="150%">
      <feGaussianBlur in="SourceAlpha" stdDeviation="5" result="b"/>
      <feOffset dx="2" dy="3" in="b" result="o"/>
      <feFlood flood-color="#1A0050" flood-opacity="0.5" result="c"/>
      <feComposite in="c" in2="o" operator="in" result="s"/>
      <feMerge><feMergeNode in="s"/><feMergeNode in="SourceGraphic"/></feMerge>
    </filter>
  </defs>
  <rect width="200" height="200" rx="45" fill="#07071A"/>
  <g transform="translate(100,102)" filter="url(#shd)">
    <path d="M 4,-66 C 16,-10 16,-8 55,5 C 7,13 5,15 -3,46 C -14,6 -16,4 -60,-4 C -9,-14 -7,-16 4,-66 Z" fill="url(#fill)"/>
    <path d="M 4,-66 C 16,-10 16,-8 55,5 C 7,13 5,15 -3,46 C -14,6 -16,4 -60,-4 C -9,-14 -7,-16 4,-66 Z" fill="url(#light)"/>
  </g>
</svg>